<svg data-src="/svg/tag-approche-fr.svg" id="Layer_1" xmlns="http://www.w3.org/2000/svg" viewBox="0 0 184.04 55.15" data-id="svg-loader_38"><defs><style>[data-id="svg-loader_38"] .cls-1{fill:#fff;}[data-id="svg-loader_38"] .cls-2{fill:#0d20d9;}</style></defs><path class="cls-2" d="m0,27.57C0,42.8,12.34,55.15,27.57,55.15h128.89c15.23,0,27.57-12.35,27.57-27.57S171.69,0,156.46,0H27.57C12.34,0,0,12.35,0,27.57,0,27.57,0,12.35,0,27.57Z"></path><g><path class="cls-1" d="m45.24,33.1c-.94,1.74-2.31,2.7-3.9,2.7-1.69,0-2.65-.88-2.65-2.47s1.46-2.91,4.08-3.74l4.42-1.46.49-1.33c.18-.44.26-.86.26-1.2,0-1.22-.73-1.87-2.52-1.87-1.56,0-2.63.39-2.63,1.09,0,.39.34.99.34,1.4,0,.78-.44,1.17-1.3,1.17s-1.3-.39-1.3-1.17c0-2.18,2.76-4.06,5.62-4.06,2.6,0,4.03.86,4.03,2.44,0,.44-.16,1.12-.39,1.82l-2.16,5.85c-.1.34-.16.6-.16.83,0,.6.29.91.86.91.88,0,1.59-.78,2.13-2.37.1-.34.29-.49.57-.49.39,0,.55.16.44.47-.86,2.63-1.98,4.16-4.03,4.16-1.38,0-2.11-.75-2.11-1.98,0-.21.03-.44.1-.73h-.21Zm-2.78.99c1.12,0,2.52-1.27,3.85-3.46l.52-1.46-3.35,1.14c-1.53.52-2.39,1.38-2.39,2.39,0,.91.47,1.38,1.38,1.38Z"></path><path class="cls-1" d="m49.96,40.69c-.44,0-.68-.18-.68-.57s.23-.57.68-.57c.88,0,1.48-.31,1.79-.96l3.87-13.03c.03-.16.05-.31.05-.47,0-.91-.75-1.25-1.9-1.25-.44,0-.68-.23-.68-.68s.23-.68.68-.68h3.87c.34,0,.49.16.49.49,0,.1-.03.18-.05.26l-2.34,5.75.18.13c1.79-4.47,4.06-6.94,6.55-6.94,2.16,0,3.35,1.27,3.35,3.64,0,4.99-3.48,9.98-7.33,9.98-1.59,0-2.6-.94-3.04-2.81l-1.4,5.54v.08c0,.73,1.2.94,2.52.94.44,0,.68.18.68.57s-.23.57-.68.57h-6.63Zm6.34-10.97l-.21.81c.29,2.21,1.33,3.56,3.02,3.56,2.57,0,4.73-3.28,4.73-6.63,0-2.21-.86-3.41-2.42-3.41-1.66,0-3.38,2.03-5.12,5.67Z"></path><path class="cls-1" d="m64.52,40.69c-.44,0-.68-.18-.68-.57s.23-.57.68-.57c.88,0,1.48-.31,1.79-.96l3.87-13.03c.03-.16.05-.31.05-.47,0-.91-.75-1.25-1.9-1.25-.44,0-.68-.23-.68-.68s.23-.68.68-.68h3.87c.34,0,.49.16.49.49,0,.1-.03.18-.05.26l-2.34,5.75.18.13c1.79-4.47,4.06-6.94,6.55-6.94,2.16,0,3.35,1.27,3.35,3.64,0,4.99-3.48,9.98-7.33,9.98-1.59,0-2.6-.94-3.04-2.81l-1.4,5.54v.08c0,.73,1.2.94,2.52.94.44,0,.68.18.68.57s-.23.57-.68.57h-6.63Zm6.34-10.97l-.21.81c.29,2.21,1.33,3.56,3.02,3.56,2.57,0,4.73-3.28,4.73-6.63,0-2.21-.86-3.41-2.42-3.41-1.66,0-3.38,2.03-5.12,5.67Z"></path><path class="cls-1" d="m84.17,35.49h-2.37l3.04-9.93c.03-.18.05-.34.05-.47,0-.83-.7-1.25-1.87-1.25-.44,0-.68-.23-.68-.68s.23-.68.68-.68h3.9c.34,0,.49.16.49.49,0,.08-.03.16-.05.26l-2.37,5.75.16.1c2.26-4.47,4.45-6.92,6.5-6.92,1.17,0,1.77.55,1.77,1.66,0,.96-.42,1.43-1.27,1.43-1.14,0-1.12-.99-1.87-.99-1.27,0-2.86,2.11-4.86,6.03l-1.25,5.17Z"></path><path class="cls-1" d="m97.19,35.8c-2.63,0-4.26-1.72-4.26-4.13,0-4.84,3.61-9.49,7.8-9.49,2.78,0,4.47,1.72,4.47,4.13,0,4.84-3.72,9.49-8.01,9.49Zm1.04-1.85c2.65,0,4.91-2.55,4.91-6.14,0-2.26-1.27-3.8-3.43-3.8-2.47,0-4.76,2.5-4.76,6.21,0,2.18,1.22,3.72,3.28,3.72Z"></path><path class="cls-1" d="m118.06,24.49c0,1.27-.52,1.92-1.59,1.92-.86,0-1.27-.42-1.27-1.27,0-1.01-.49-1.51-1.48-1.51-2.5,0-4.89,3.46-4.89,7.1,0,2.08,1.01,3.2,2.81,3.2,1.56,0,2.94-1.12,3.85-3.17.13-.29.36-.44.68-.44s.47.13.47.42c0,.21-.08.42-.18.62-1.43,2.83-3.59,4.45-6.08,4.45-2.37,0-3.67-1.43-3.67-3.74,0-4.84,3.87-9.88,8.24-9.88,2,0,3.12.83,3.12,2.31Z"></path><path class="cls-1" d="m120.81,35.49h-2.37l4.65-16.72c.05-.21.08-.39.08-.57,0-.86-.73-1.25-1.95-1.25-.44,0-.68-.23-.68-.68s.23-.68.68-.68h4.16c.34,0,.49.16.49.49,0,.03-.03.13-.05.26l-4.19,12.64.16.13c2.31-4.47,4.84-6.94,7.12-6.94,1.64,0,2.52.68,2.52,1.92,0,.62-.23,1.51-.68,2.68l-1.98,4.91c-.26.62-.39,1.12-.39,1.46,0,.6.29.88.88.88,1.07,0,1.92-.57,2.57-1.72.18-.29.39-.42.57-.42.44,0,.6.13.47.39-1.17,2.26-2.83,3.51-4.78,3.51-1.27,0-1.9-.55-1.9-1.61,0-.49.26-1.3.6-2.24l1.79-4.55c.39-1.04.57-1.77.57-2.18,0-.78-.47-1.17-1.4-1.17-1.53,0-3.61,2.24-5.72,6.29l-1.25,5.15Z"></path><path class="cls-1" d="m134.27,31.85c0-4.63,3.69-9.67,7.64-9.67,1.48,0,2.68.88,2.68,2.52,0,1.46-.88,3.25-2.34,3.25h-5.49c-.23.83-.36,1.66-.36,2.52,0,2.37,1.01,3.46,2.81,3.46,1.66,0,2.91-1.17,3.85-3.17.13-.29.36-.44.68-.44.29,0,.44.13.44.42,0,.21-.05.42-.16.62-1.43,2.83-3.51,4.45-6.08,4.45-2.37,0-3.67-1.38-3.67-3.95Zm2.96-5.1h4.78c.13-.44.18-.83.18-1.22,0-1.22-.6-1.79-1.51-1.79-1.35,0-2.65,1.25-3.46,3.02Z"></path></g></svg>