<svg data-src="/svg/tag-en_cours-fr.svg" id="Layer_1" xmlns="http://www.w3.org/2000/svg" viewBox="0 0 175.22 55.15" data-id="svg-loader_179"><defs><style>[data-id="svg-loader_179"] .cls-1{fill:#fff;}[data-id="svg-loader_179"] .cls-2{fill:#0d20d9;}</style></defs><path class="cls-2" d="m0,27.57C0,42.8,12.34,55.15,27.57,55.15h120.07c15.23,0,27.57-12.35,27.57-27.57S162.87,0,147.64,0H27.57C12.34,0,0,12.35,0,27.57,0,27.57,0,12.35,0,27.57Z"></path><g><path class="cls-1" d="m39.24,31.85c0-4.63,3.69-9.67,7.64-9.67,1.48,0,2.68.88,2.68,2.52,0,1.46-.88,3.25-2.34,3.25h-5.49c-.23.83-.36,1.66-.36,2.52,0,2.37,1.01,3.46,2.81,3.46,1.66,0,2.91-1.17,3.85-3.17.13-.29.36-.44.68-.44.29,0,.44.13.44.42,0,.21-.05.42-.16.62-1.43,2.83-3.51,4.45-6.08,4.45-2.37,0-3.67-1.38-3.67-3.95Zm2.96-5.1h4.78c.13-.44.18-.83.18-1.22,0-1.22-.6-1.79-1.51-1.79-1.35,0-2.65,1.25-3.46,3.02Z"></path><path class="cls-1" d="m53.43,35.49h-2.37l3.04-9.93c.03-.16.05-.31.05-.47,0-.91-.75-1.25-1.87-1.25-.44,0-.68-.23-.68-.68s.23-.68.68-.68h3.9c.34,0,.49.16.49.49,0,.1-.03.18-.05.26l-2.37,5.75.16.13c2.31-4.47,4.86-6.94,7.15-6.94,1.66,0,2.5.65,2.5,1.92,0,.62-.23,1.51-.68,2.68l-1.95,4.91c-.26.62-.39,1.12-.39,1.46,0,.6.29.88.88.88,1.01,0,1.92-.65,2.57-1.72.18-.29.36-.42.55-.42.44,0,.6.13.49.39-1.01,2.26-2.73,3.51-4.78,3.51-1.22,0-1.92-.57-1.92-1.61,0-.49.26-1.3.6-2.24l1.79-4.55c.39-1.01.6-1.74.6-2.18,0-.78-.47-1.17-1.4-1.17-1.56,0-3.59,2.24-5.75,6.29l-1.25,5.15Z"></path><path class="cls-1" d="m84.63,24.49c0,1.27-.52,1.92-1.59,1.92-.86,0-1.27-.42-1.27-1.27,0-1.01-.49-1.51-1.48-1.51-2.5,0-4.89,3.46-4.89,7.1,0,2.08,1.01,3.2,2.81,3.2,1.56,0,2.94-1.12,3.85-3.17.13-.29.36-.44.68-.44s.47.13.47.42c0,.21-.08.42-.18.62-1.43,2.83-3.59,4.45-6.08,4.45-2.37,0-3.67-1.43-3.67-3.74,0-4.84,3.87-9.88,8.24-9.88,2,0,3.12.83,3.12,2.31Z"></path><path class="cls-1" d="m89.87,35.8c-2.63,0-4.26-1.72-4.26-4.13,0-4.84,3.61-9.49,7.8-9.49,2.78,0,4.47,1.72,4.47,4.13,0,4.84-3.72,9.49-8.01,9.49Zm1.04-1.85c2.65,0,4.91-2.55,4.91-6.14,0-2.26-1.27-3.8-3.43-3.8-2.47,0-4.76,2.5-4.76,6.21,0,2.18,1.22,3.72,3.28,3.72Z"></path><path class="cls-1" d="m109.17,35.8c-1.27,0-1.9-.6-1.9-1.82,0-.49.13-1.07.42-1.72l1.59-3.67-.16-.1c-2.42,4.71-4.68,7.31-7.05,7.31-1.53,0-2.31-.65-2.31-1.95,0-.7.21-1.59.6-2.65l2-5.62c.03-.18.05-.36.05-.55,0-.81-.68-1.2-2.03-1.2-.44,0-.68-.23-.68-.68s.23-.68.68-.68h4.16c.36,0,.55.18.55.55,0,.05-.03.16-.05.29l-2.52,7.25c-.34.96-.49,1.66-.49,2.11,0,.83.39,1.25,1.2,1.25,1.59,0,3.41-2.42,5.77-6.86l1.53-4.58h1.35c.36,0,.55.18.55.55,0,.05-.03.16-.05.29l-2.86,8.01c-.23.6-.34,1.12-.34,1.51,0,.7.34,1.07,1.04,1.07.96,0,1.92-.47,2.57-1.59.18-.29.39-.42.57-.42.44,0,.6.13.47.39-1.14,2.26-2.81,3.51-4.65,3.51Z"></path><path class="cls-1" d="m117.09,35.49h-2.37l3.04-9.93c.03-.18.05-.34.05-.47,0-.83-.7-1.25-1.87-1.25-.44,0-.68-.23-.68-.68s.23-.68.68-.68h3.9c.34,0,.49.16.49.49,0,.08-.03.16-.05.26l-2.37,5.75.16.1c2.26-4.47,4.45-6.92,6.5-6.92,1.17,0,1.77.55,1.77,1.66,0,.96-.42,1.43-1.27,1.43-1.14,0-1.12-.99-1.87-.99-1.27,0-2.86,2.11-4.86,6.03l-1.25,5.17Z"></path><path class="cls-1" d="m129.79,35.8c-2.91,0-4.39-.88-4.39-2.42,0-1.27.49-1.9,1.48-1.9.83,0,1.25.44,1.25,1.35,0,1.33.6,1.98,1.79,1.98,1.64,0,2.31-.86,2.31-2.34,0-1.33-.96-2.26-2.08-3.12-1.17-.94-2.21-2-2.21-3.64,0-2.26,1.53-3.54,4.58-3.54,2.6,0,4.06.88,4.06,2.42,0,1.22-.49,1.82-1.46,1.82-.86,0-1.27-.42-1.27-1.27,0-1.27-.6-1.98-1.61-1.98-1.59,0-2.24.73-2.24,2.08,0,1.22.83,2.08,1.85,2.89,1.25.96,2.44,2.08,2.44,3.87,0,2.42-1.56,3.8-4.5,3.8Z"></path></g></svg>