<svg data-v-eb01d954="" data-src="/svg/logo-full.svg" xmlns="http://www.w3.org/2000/svg" xmlns:xlink="http://www.w3.org/1999/xlink" width="1396.217" height="385.972" viewBox="0 0 1396.217 385.972" data-id="svg-loader_63">

  <g clip-path="url(#logo-clip-path_64)">
    <path d="M320.894,331.2a135.291,135.291,0,0,1-35.563-5.4l-1.12-.34.95-49.833,1.922.535A149.267,149.267,0,0,0,313.475,281c1.247.108,2.485.173,3.7.173,9.244,0,19.321-3.1,23.939-26.1.668-3.315,1.117-6.815-.1-9.962L253.3,26.145h60.241l55.435,148.287L423.538,26.145H481.5L391.775,269.113c-17.894,51.062-30.481,62.089-70.881,62.089" transform="translate(530.619 54.77)" fill="currentColor"></path>
    <rect width="55.989" height="307.805" transform="translate(704.634)" fill="currentColor"></rect>
    <path d="M433.743,295.511c-46.2,0-68.662-19.55-68.662-59.768V113.283h-32V67.965h32V6.182h55.1V67.965h45.337v45.318H420.179V231.3c0,11.414,5.039,14.9,21.565,14.9a127.422,127.422,0,0,0,20.175-2.2l1.783-.313.947,48.868-1.253.263a154.508,154.508,0,0,1-29.652,2.7" transform="translate(697.755 12.95)" fill="currentColor"></path>
    <path d="M259.1,254.762c-67.245,0-110.7-45.5-110.7-115.915,0-67.171,44.485-112.3,110.7-112.3,65.97,0,110.3,45.132,110.3,112.3,0,70.414-43.3,115.915-110.3,115.915m0-184.593c-36.111,0-59.446,26.956-59.446,68.678,0,43.238,23.889,72.29,59.446,72.29,35.869,0,59.047-28.374,59.047-72.29,0-41.722-23.177-68.678-59.047-68.678" transform="translate(310.883 55.606)" fill="currentColor"></path>
    <path d="M184.276,254.759c-66.691,0-111.5-46.42-111.5-115.512,0-67.412,44.325-112.7,110.295-112.7,48.258,0,84.966,24.338,98.2,65.1a82.517,82.517,0,0,1,5.992,27.885l.084,1.557-50.418,2.241-.09-1.526a56.224,56.224,0,0,0-1.684-11.234l-.037-.155-.028-.282c-6.363-24.951-25.975-39.964-52.424-39.964-35.622,0-58.644,27.117-58.644,69.08,0,43.668,23.651,71.887,60.251,71.887,27.086,0,46.448-16.957,51.783-45.361a61.6,61.6,0,0,0,.749-6.6l.087-1.526,49.456,2.2-.08,1.56c-.04.768-.108,1.51-.186,2.247h.022l-.152,1.721-.127.959a87.194,87.194,0,0,1-2.114,12.3c-10.668,47.652-47.843,76.121-99.438,76.121" transform="translate(152.46 55.606)" fill="currentColor"></path>
    <path d="M79.2,261.945c-21.655,0-41.282-6.035-55.271-16.994C8.279,232.683,0,214.739,0,193.066c0-48.617,39.441-62.686,82.06-70.649l46.454-7.889c15.638-2.937,20.389-18.845,14.577-33.657-4.806-12.256-18.414-15.081-36.058-15.081-28.965,0-41.675,9.86-43.87,34.031l-.127,1.408H7.551L7.635,99.6C8.984,73.214,18.721,53.639,36.584,41.418c16.78-11.791,41.548-17.777,73.59-17.777,59.471,0,92.224,26.854,92.224,75.61v97.476H147.383l.279-47.076L91.2,161.814c-21.345,5.1-33.731,11.76-33.787,30.673-.043,14.354,11.46,26.26,26.189,27.108q3.5.2,6.827.2c11.333,0,21.262-1.752,29.513-5.209l2.148-.9v39.534l-.9.415c-12.03,5.515-26.155,8.313-41.982,8.313" transform="translate(0 49.525)" fill="currentColor"></path>
    <path d="M504.252,210.887a69.915,69.915,0,0,1-9.761.684c-34.628,0-58.322-22.834-62.148-59.721H597.837v-12.7c-1.25-68.381-43.572-112.566-107.819-112.566-65.141,0-108.9,46.215-108.9,115,0,66.53,46.451,113,112.965,113,38.676,0,69.73-15.846,87.43-44.585a93.842,93.842,0,0,0,13.339-33.517l-51.439-2.222c-5.277,19.219-20.076,33.161-39.156,36.634m-14.233-141.3c27.293,0,46.636,16.765,53.3,46.079H434.646c7.691-29.314,27.789-46.079,55.373-46.079" transform="translate(798.38 55.679)" fill="currentColor"></path>
  </g>
</svg>