<svg data-src="/svg/logo-footer.svg" data-v-0e753d96="" version="1.1" xmlns="http://www.w3.org/2000/svg" xmlns:xlink="http://www.w3.org/1999/xlink" x="0px" y="0px" width="600.484px" height="97.658px" viewBox="0 0 600.484 97.658" style="enable-background:new 0 0 600.484 97.658;" xml:space="preserve" data-id="svg-loader_43">
<g>
	<path d="M215.448,97.658c-3.047-0.053-6.074-0.512-9-1.366l-0.283-0.086l0.24-12.609l0.486,0.135
		c2.185,0.608,4.42,1.017,6.678,1.224c0.316,0.027,0.629,0.044,0.937,0.044c2.339,0,4.889-0.785,6.057-6.6
		c0.23-0.826,0.222-1.7-0.024-2.521l-22.2-55.4h15.242l14.026,37.519l13.811-37.525h14.667l-22.7,61.475
		c-4.528,12.92-7.712,15.71-17.934,15.71"></path>
	<rect x="178.285" width="14.166" height="77.88"></rect>
	<path d="M286.29,78.046c-11.69,0-17.373-4.947-17.373-15.122V31.939h-8.1V20.473h8.1V4.841h13.941v15.632h11.471
		v11.466h-11.472v29.86c0,2.888,1.275,3.769,5.456,3.769c1.712-0.05,3.417-0.235,5.1-0.556l0.451-0.079l0.24,12.364l-0.317,0.067
		c-2.472,0.468-4.984,0.697-7.5,0.683"></path>
	<path d="M144.216,78.528c-17.014,0-28.008-11.512-28.008-29.329c0-17,11.256-28.415,28.008-28.415
		c16.692,0,27.907,11.419,27.907,28.415C172.123,67.015,161.168,78.528,144.216,78.528 M144.216,31.823
		c-9.137,0-15.041,6.82-15.041,17.377c0,10.94,6.044,18.291,15.041,18.291c9.076,0,14.94-7.179,14.94-18.291
		C159.156,38.644,153.292,31.823,144.216,31.823"></path>
	<path d="M85.2,78.527c-16.874,0-28.211-11.745-28.211-29.227c0-17.056,11.215-28.516,27.906-28.516
		c12.21,0,21.5,6.158,24.847,16.472c0.911,2.246,1.424,4.633,1.516,7.055l0.021,0.394l-12.757,0.567l-0.023-0.386
		c-0.046-0.959-0.188-1.911-0.426-2.842l-0.009-0.039l-0.007-0.071c-1.61-6.313-6.572-10.112-13.264-10.112
		c-9.013,0-14.838,6.861-14.838,17.479c0,11.049,5.984,18.189,15.244,18.189c6.853,0,11.752-4.29,13.1-11.477
		c0.093-0.553,0.156-1.11,0.189-1.669l0.022-0.386l12.513,0.556l-0.02,0.395c-0.01,0.194-0.027,0.382-0.047,0.568h0.005
		l-0.038,0.435l-0.032,0.243c-0.104,1.049-0.283,2.089-0.535,3.113c-2.7,12.057-12.105,19.26-25.16,19.26"></path>
	<path d="M20.04,78.807c-5.008,0.149-9.926-1.362-13.985-4.3C2.065,71.342-0.183,66.469,0,61.379
		c0-12.3,9.979-15.861,20.763-17.876l11.754-2c3.957-0.743,5.159-4.768,3.688-8.516c-1.216-3.1-4.659-3.816-9.123-3.816
		c-7.329,0-10.545,2.495-11.1,8.61l-0.032,0.356H1.911l0.021-0.412c0.341-6.676,2.8-11.629,7.325-14.721
		c4.246-2.983,10.512-4.5,18.619-4.5c15.047,0,23.334,6.795,23.334,19.131v24.671H37.291l0.07-11.911l-14.286,3.076
		c-5.4,1.291-8.535,2.976-8.549,7.761c0.038,3.683,2.947,6.694,6.626,6.859c0.591,0.034,1.167,0.051,1.727,0.05
		c2.552,0.058,5.089-0.39,7.467-1.318l0.543-0.228v10l-0.229,0.1c-3.348,1.456-6.971,2.173-10.622,2.1"></path>
	<path d="M329.589,67.446c-0.818,0.115-1.644,0.173-2.47,0.173c-8.762,0-14.757-5.777-15.725-15.111h41.873v-3.214
		c-0.316-17.3-11.025-28.481-27.28-28.481c-16.482,0-27.555,11.693-27.555,29.1c0,16.833,11.753,28.59,28.582,28.59
		c9.786,0,17.643-4.009,22.121-11.281c1.663-2.582,2.809-5.462,3.375-8.48l-13.015-0.562c-1.21,4.758-5.079,8.378-9.907,9.269
		 M325.988,31.697c6.906,0,11.8,4.242,13.485,11.659h-27.5c1.946-7.422,7.036-11.662,14.015-11.662"></path>
</g>
<g>
	<path d="M402.682,27.722h-2.835L392.341,47h2.619l2.16-5.805h8.154L407.38,47h2.835L402.682,27.722z M397.93,39.035l3.267-8.991
		h0.054l3.213,8.991H397.93z"></path>
	<path d="M427.105,45.88c-0.138-0.437-0.242-0.884-0.311-1.337c-0.073-0.474-0.118-0.952-0.135-1.431
		c-0.018-0.486-0.045-0.963-0.081-1.431c-0.051-0.454-0.128-0.905-0.229-1.35c-0.092-0.413-0.246-0.809-0.459-1.174
		c-0.213-0.355-0.498-0.662-0.837-0.9c-0.41-0.276-0.876-0.46-1.364-0.54v-0.054c1.056-0.242,1.973-0.893,2.551-1.809
		c0.546-0.932,0.823-1.998,0.8-3.078c0.069-1.405-0.501-2.765-1.552-3.7c-1.221-0.962-2.754-1.443-4.306-1.35l-9.077-0.004V47h2.565
		v-8.235h6.264c0.519-0.022,1.036,0.075,1.512,0.284c0.362,0.176,0.676,0.435,0.918,0.756c0.242,0.332,0.416,0.708,0.513,1.107
		c0.108,0.423,0.198,0.868,0.27,1.337c0.089,0.472,0.142,0.95,0.158,1.43c0.018,0.486,0.036,0.941,0.054,1.364
		c0.015,0.385,0.057,0.768,0.125,1.147c0.043,0.299,0.17,0.58,0.365,0.81h2.862C427.438,46.67,427.232,46.289,427.105,45.88z
		 M423.134,35.944c-0.432,0.271-0.914,0.451-1.418,0.527c-0.562,0.091-1.131,0.136-1.7,0.134h-5.346v-6.723h6.372
		c0.965-0.09,1.921,0.245,2.619,0.918c0.558,0.663,0.847,1.51,0.81,2.376c0.024,0.593-0.101,1.183-0.365,1.715
		C423.876,35.318,423.541,35.68,423.134,35.944z"></path>
	<polygon points="434.488,29.882 434.488,47 437.053,47 437.053,29.882 443.479,29.882 443.479,27.722 428.062,27.722 
		428.062,29.882 	"></polygon>
	<polygon points="445.612,27.722 445.612,47 459.005,47 459.005,44.84 448.177,44.84 448.177,38.171 458.194,38.171 458.194,36.011 
		448.177,36.011 448.177,29.882 458.923,29.882 458.923,27.722 	"></polygon>
	<polygon points="462.082,27.722 462.082,47 464.512,47 464.512,31.529 464.566,31.529 474.637,47 477.445,47 477.445,27.722 
		475.015,27.722 475.015,43.355 474.961,43.355 464.805,27.722 	"></polygon>
	<path d="M489.672,27.722h-2.831L479.335,47h2.619l2.16-5.805h8.154L494.374,47h2.831L489.672,27.722z M484.924,39.035l3.267-8.991
		h0.054l3.213,8.991H484.924z"></path>
	<rect x="499.207" y="27.722" width="2.565" height="19.278"></rect>
	<path d="M521.092,45.881c-0.138-0.437-0.242-0.884-0.311-1.337c-0.073-0.474-0.118-0.952-0.135-1.431
		c-0.018-0.486-0.045-0.963-0.081-1.431c-0.052-0.454-0.129-0.905-0.23-1.35c-0.092-0.413-0.246-0.809-0.459-1.174
		c-0.213-0.355-0.498-0.662-0.837-0.9c-0.41-0.276-0.876-0.46-1.364-0.54v-0.054c1.056-0.242,1.973-0.893,2.551-1.809
		c0.546-0.932,0.823-1.998,0.8-3.078c0.069-1.405-0.502-2.765-1.553-3.7c-1.222-0.962-2.754-1.443-4.307-1.35l-9.074-0.005V47h2.565
		v-8.235h6.264c0.519-0.022,1.036,0.075,1.512,0.284c0.362,0.176,0.676,0.435,0.918,0.756c0.242,0.332,0.416,0.708,0.513,1.107
		c0.108,0.423,0.198,0.868,0.27,1.337c0.091,0.472,0.145,0.951,0.162,1.431c0.018,0.486,0.036,0.941,0.054,1.364
		c0.014,0.385,0.055,0.768,0.122,1.147c0.043,0.299,0.17,0.58,0.365,0.81h2.862C521.426,46.671,521.22,46.29,521.092,45.881z
		 M517.123,35.944c-0.431,0.271-0.914,0.45-1.417,0.527c-0.562,0.091-1.131,0.136-1.701,0.134h-5.346v-6.723h6.372
		c0.965-0.09,1.921,0.245,2.619,0.918c0.558,0.663,0.847,1.51,0.81,2.376c0.024,0.593-0.101,1.183-0.365,1.715
		C517.865,35.318,517.53,35.68,517.123,35.944z"></path>
	<polygon points="524.589,27.722 524.589,47 537.981,47 537.981,44.84 527.152,44.84 527.152,38.171 537.169,38.171 537.169,36.011 
		527.152,36.011 527.152,29.882 537.898,29.882 537.898,27.722 	"></polygon>
	<path d="M392.587,61.99c-1.6-1.512-3.887-2.268-6.861-2.268h-6.615V79h6.615c1.416,0.031,2.825-0.198,4.158-0.675
		c1.108-0.408,2.1-1.08,2.889-1.958c0.788-0.914,1.36-1.994,1.674-3.159c0.38-1.403,0.561-2.852,0.54-4.306
		C394.987,65.806,394.187,63.502,392.587,61.99z M392.059,72.292c-0.2,0.741-0.514,1.447-0.931,2.092
		c-0.34,0.519-0.775,0.968-1.283,1.323c-0.447,0.309-0.933,0.559-1.444,0.743c-0.445,0.161-0.907,0.27-1.377,0.324
		c-0.359,0.041-0.719,0.063-1.08,0.068l-4.268-0.002V61.882h4.32c1.023-0.029,2.042,0.141,3,0.5c0.775,0.308,1.459,0.81,1.984,1.458
		c0.535,0.684,0.912,1.476,1.107,2.322c0.237,1.013,0.35,2.052,0.337,3.092C392.444,70.279,392.322,71.301,392.059,72.292z"></path>
	<polygon points="398.119,59.722 398.119,79 411.511,79 411.511,76.84 400.684,76.84 400.684,70.171 410.705,70.171 410.705,68.011 
		400.684,68.011 400.684,61.882 411.43,61.882 411.43,59.722 	"></polygon>
	<path d="M435.676,65.527h2.565c-0.12-0.957-0.433-1.88-0.918-2.714c-0.45-0.762-1.046-1.427-1.755-1.957
		c-0.724-0.533-1.537-0.935-2.4-1.188c-0.929-0.272-1.894-0.407-2.862-0.4c-1.352-0.025-2.694,0.248-3.929,0.8
		c-1.104,0.502-2.082,1.245-2.862,2.174c-0.784,0.953-1.375,2.048-1.741,3.226c-0.403,1.28-0.604,2.614-0.594,3.956
		c-0.01,1.334,0.177,2.662,0.554,3.942c0.336,1.162,0.9,2.245,1.66,3.186c0.752,0.911,1.703,1.636,2.781,2.12
		c1.234,0.537,2.57,0.799,3.915,0.769c2.135,0.119,4.23-0.609,5.832-2.025c1.501-1.52,2.394-3.537,2.511-5.67h-2.568
		c-0.047,0.759-0.211,1.506-0.486,2.214c-0.253,0.657-0.634,1.258-1.12,1.768c-0.482,0.499-1.06,0.894-1.7,1.161
		c-0.716,0.288-1.483,0.427-2.254,0.411c-1.028,0.028-2.047-0.195-2.97-0.648c-0.807-0.413-1.505-1.01-2.04-1.742
		c-0.551-0.773-0.949-1.643-1.174-2.565c-0.257-1.019-0.384-2.067-0.378-3.118c-0.003-0.984,0.124-1.965,0.378-2.916
		c0.234-0.899,0.632-1.746,1.174-2.5c0.531-0.729,1.224-1.325,2.025-1.741c0.918-0.455,1.933-0.677,2.957-0.648
		c1.245-0.032,2.469,0.327,3.5,1.026C434.79,63.185,435.472,64.291,435.676,65.527z"></path>
	<path d="M458.429,65.567c-0.367-1.178-0.959-2.274-1.742-3.227c-0.791-0.948-1.778-1.712-2.894-2.24
		c-2.566-1.116-5.48-1.116-8.046,0c-1.114,0.529-2.1,1.293-2.889,2.241c-0.784,0.953-1.375,2.049-1.742,3.227
		c-0.389,1.227-0.584,2.506-0.58,3.793h0.004c-0.004,1.287,0.192,2.566,0.581,3.793c0.367,1.178,0.958,2.274,1.742,3.227
		c0.787,0.946,1.774,1.706,2.889,2.227c2.57,1.098,5.476,1.098,8.046,0c1.115-0.521,2.102-1.281,2.889-2.227
		c0.783-0.953,1.375-2.049,1.742-3.227C459.203,70.684,459.203,68.037,458.429,65.567z M456.065,72.237
		c-0.238,0.916-0.641,1.78-1.188,2.552c-0.544,0.759-1.255,1.383-2.079,1.823c-1.911,0.918-4.137,0.918-6.048,0
		c-0.824-0.44-1.535-1.064-2.079-1.823c-0.547-0.772-0.95-1.636-1.188-2.552c-0.251-0.938-0.378-1.905-0.378-2.876
		c0-0.971,0.127-1.937,0.378-2.875c0.238-0.916,0.641-1.78,1.188-2.552c0.544-0.759,1.255-1.383,2.079-1.822
		c1.911-0.918,4.137-0.918,6.048,0c0.824,0.44,1.535,1.063,2.079,1.822c0.547,0.772,0.95,1.636,1.188,2.552
		C456.569,68.37,456.569,70.353,456.065,72.237z"></path>
	<rect x="461.384" y="70.414" width="7.8" height="2.16"></rect>
	<path d="M486.197,65.527h2.565c-0.12-0.957-0.433-1.88-0.918-2.714c-0.45-0.762-1.046-1.427-1.755-1.957
		c-0.724-0.533-1.537-0.935-2.4-1.188c-0.929-0.272-1.894-0.407-2.862-0.4c-1.352-0.025-2.694,0.248-3.929,0.8
		c-1.104,0.502-2.082,1.245-2.862,2.174c-0.784,0.952-1.376,2.048-1.742,3.226c-0.403,1.28-0.604,2.614-0.594,3.956
		c-0.01,1.334,0.176,2.662,0.553,3.942c0.336,1.162,0.9,2.245,1.66,3.186c0.752,0.911,1.703,1.636,2.781,2.12
		c1.234,0.537,2.57,0.799,3.915,0.769c2.135,0.119,4.23-0.609,5.832-2.025c1.501-1.52,2.394-3.537,2.511-5.67h-2.565
		c-0.047,0.759-0.211,1.506-0.486,2.214c-0.253,0.657-0.634,1.258-1.12,1.768c-0.482,0.499-1.06,0.894-1.7,1.161
		c-0.716,0.29-1.483,0.432-2.255,0.418c-1.028,0.028-2.047-0.195-2.97-0.648c-0.806-0.414-1.504-1.01-2.038-1.742
		c-0.551-0.773-0.949-1.643-1.174-2.565c-0.257-1.019-0.384-2.067-0.378-3.118c-0.003-0.984,0.124-1.965,0.378-2.916
		c0.234-0.899,0.632-1.746,1.174-2.5c0.531-0.729,1.224-1.325,2.025-1.741c0.918-0.455,1.933-0.677,2.957-0.648
		c1.245-0.032,2.469,0.327,3.5,1.026c1.009,0.737,1.689,1.84,1.893,3.072H486.197z"></path>
	<path d="M507.135,77.88c-0.138-0.437-0.242-0.884-0.31-1.337c-0.073-0.474-0.118-0.952-0.135-1.431
		c-0.018-0.486-0.045-0.963-0.081-1.431c-0.052-0.454-0.129-0.905-0.23-1.35c-0.091-0.413-0.246-0.809-0.459-1.175
		c-0.213-0.355-0.498-0.662-0.837-0.9c-0.41-0.276-0.876-0.46-1.364-0.54v-0.054c1.056-0.242,1.973-0.893,2.551-1.809
		c0.546-0.932,0.823-1.998,0.8-3.078c0.069-1.405-0.502-2.765-1.553-3.7c-1.222-0.962-2.754-1.443-4.306-1.35l-9.074-0.003V79h2.565
		v-8.235h6.264c0.519-0.022,1.036,0.075,1.512,0.284c0.362,0.176,0.676,0.435,0.918,0.756c0.242,0.332,0.416,0.708,0.513,1.107
		c0.108,0.423,0.198,0.869,0.27,1.337c0.09,0.472,0.145,0.951,0.162,1.431c0.018,0.486,0.036,0.94,0.054,1.363
		c0.014,0.385,0.054,0.769,0.121,1.148c0.043,0.299,0.17,0.58,0.365,0.81h2.862C507.469,78.67,507.263,78.29,507.135,77.88z
		 M503.166,67.944c-0.431,0.271-0.914,0.45-1.417,0.527c-0.564,0.09-1.134,0.133-1.705,0.129l0.004,0.005h-5.346v-6.723h6.372
		c0.965-0.09,1.921,0.245,2.619,0.918c0.558,0.663,0.847,1.51,0.81,2.376c0.024,0.593-0.101,1.183-0.365,1.715
		C503.908,67.318,503.573,67.68,503.166,67.944z"></path>
	<polygon points="523.943,59.722 523.943,61.882 513.193,61.882 513.193,68.011 523.21,68.011 523.21,70.171 513.193,70.171 
		513.193,76.84 524.02,76.84 524.02,79 510.628,79 510.628,59.722 	"></polygon>
	<polygon points="520.676,53.971 516.869,58.345 515.141,58.345 517.733,53.971 	"></polygon>
	<path d="M535.198,59.722h-2.831L524.857,79h2.619l2.16-5.805h8.154L539.896,79h2.835L535.198,59.722z M530.45,71.035l3.267-8.991
		h0.054l3.213,8.991H530.45z"></path>
	<polygon points="546.515,61.882 546.515,79 549.08,79 549.08,61.882 555.505,61.882 555.505,59.722 540.085,59.722 540.085,61.882 
			"></polygon>
	<rect x="557.747" y="59.722" width="2.558" height="19.278"></rect>
	<path d="M581.441,65.567c-0.367-1.178-0.959-2.274-1.742-3.227c-0.791-0.948-1.778-1.712-2.894-2.24
		c-2.566-1.116-5.48-1.116-8.046,0c-1.114,0.529-2.1,1.293-2.889,2.241c-0.784,0.953-1.375,2.049-1.742,3.227
		c-0.389,1.227-0.584,2.506-0.58,3.793h0.004c-0.004,1.287,0.192,2.566,0.581,3.793c0.367,1.178,0.958,2.274,1.742,3.227
		c0.787,0.946,1.774,1.706,2.889,2.227c2.57,1.098,5.476,1.098,8.046,0c1.115-0.521,2.102-1.281,2.889-2.227
		c0.783-0.953,1.375-2.049,1.742-3.227C582.215,70.684,582.215,68.037,581.441,65.567z M579.077,72.237
		c-0.238,0.916-0.641,1.78-1.188,2.552c-0.544,0.759-1.255,1.383-2.079,1.823c-1.911,0.918-4.136,0.918-6.048,0
		c-0.824-0.44-1.535-1.064-2.079-1.823c-0.547-0.772-0.95-1.636-1.188-2.552c-0.252-0.938-0.381-1.905-0.382-2.876h0.004
		c0-0.971,0.127-1.937,0.378-2.875c0.238-0.916,0.641-1.78,1.188-2.552c0.544-0.759,1.255-1.383,2.079-1.822
		c1.911-0.918,4.137-0.918,6.048,0c0.824,0.44,1.535,1.063,2.079,1.822c0.547,0.772,0.95,1.636,1.188,2.552
		C579.581,68.37,579.581,70.353,579.077,72.237z"></path>
	<polygon points="585.125,59.722 585.125,79 587.555,79 587.555,63.529 587.609,63.529 597.676,79 600.484,79 600.484,59.722 
		598.054,59.722 598.054,75.355 598,75.355 587.848,59.722 	"></polygon>
	<path d="M391.976,29.219c-1.208-1.076-2.8-1.617-4.414-1.5l-8.451,0.003V47h2.565v-7.884h5.886c1.613,0.135,3.21-0.403,4.414-1.485
		c1.05-1.143,1.592-2.663,1.5-4.212C393.57,31.873,393.028,30.356,391.976,29.219z M389.893,36.065
		c-0.918,0.687-2.059,1.005-3.2,0.891h-5.017v-7.074h5.022c1.141-0.098,2.278,0.222,3.2,0.9c0.708,0.687,1.077,1.652,1.007,2.637
		C390.97,34.406,390.6,35.373,389.893,36.065z"></path>
</g>
</svg>