<svg data-src="/svg/tag-pas_boulevard-fr.svg" xmlns="http://www.w3.org/2000/svg" width="153" height="41" viewBox="0 0 153 41" data-id="svg-loader_181"><g transform="translate(-9064 14740.84)"><rect width="153" height="41" rx="20.5" transform="translate(9064 -14740.84)" fill="#0d20d9"></rect><path d="M2.992,3.2c.272,0,.416-.112.416-.352S3.264,2.5,2.992,2.5c-.816,0-1.552-.128-1.552-.576V1.872L2.3-1.536Q2.712.192,4.176.192c2.368,0,4.512-3.072,4.512-6.144,0-1.456-.736-2.24-2.064-2.24-1.536,0-2.928,1.52-4.032,4.272L2.48-4,3.92-7.536a.473.473,0,0,0,.032-.16.265.265,0,0,0-.3-.3H1.264a.372.372,0,0,0-.416.416.372.372,0,0,0,.416.416c.7,0,1.168.208,1.168.768a1.763,1.763,0,0,1-.032.288L.016,1.9a1.1,1.1,0,0,1-1.1.592c-.272,0-.416.112-.416.352s.144.352.416.352ZM5.968-7.04c.96,0,1.488.736,1.488,2.1,0,2.064-1.328,4.08-2.912,4.08-1.04,0-1.68-.832-1.856-2.192l.128-.5C3.888-5.792,4.944-7.04,5.968-7.04Zm7.5,5.568a1.67,1.67,0,0,0-.064.448A1.143,1.143,0,0,0,14.7.192c1.264,0,1.952-.944,2.48-2.56.064-.192-.032-.288-.272-.288-.176,0-.288.1-.352.3C16.224-1.376,15.792-.9,15.248-.9c-.352,0-.528-.192-.528-.56a1.759,1.759,0,0,1,.1-.512l1.328-3.6a4.036,4.036,0,0,0,.24-1.12c0-.976-.88-1.5-2.48-1.5-1.76,0-3.456,1.152-3.456,2.5,0,.48.272.72.8.72s.8-.24.8-.72c0-.256-.208-.624-.208-.864,0-.432.656-.672,1.616-.672,1.1,0,1.552.4,1.552,1.152a1.977,1.977,0,0,1-.16.736l-.3.816-2.72.9c-1.616.512-2.512,1.328-2.512,2.3A1.431,1.431,0,0,0,10.944.192a2.76,2.76,0,0,0,2.4-1.664Zm-2.688-.24c0-.624.528-1.152,1.472-1.472l2.064-.7-.32.9c-.816,1.344-1.68,2.128-2.368,2.128A.754.754,0,0,1,10.784-1.712Zm12.3-.432a3.043,3.043,0,0,0-1.5-2.384A2.353,2.353,0,0,1,20.448-6.3c0-.832.4-1.28,1.376-1.28.624,0,.992.432.992,1.216a.689.689,0,0,0,.784.784c.592,0,.9-.368.9-1.12,0-.944-.9-1.488-2.5-1.488-1.872,0-2.816.784-2.816,2.176a2.884,2.884,0,0,0,1.36,2.24,2.557,2.557,0,0,1,1.28,1.92A1.261,1.261,0,0,1,20.4-.416c-.736,0-1.1-.4-1.1-1.216,0-.56-.256-.832-.768-.832-.608,0-.912.384-.912,1.168,0,.944.912,1.488,2.7,1.488C22.128.192,23.088-.656,23.088-2.144Zm10.736-.512c.048-.16-.032-.24-.256-.24a.37.37,0,0,0-.368.3c-.336.976-.928,1.7-1.744,1.7a.822.822,0,0,1-.848-.928,3.374,3.374,0,0,1,.112-.768l2.624-9.136a1.426,1.426,0,0,0,.032-.176.3.3,0,0,0-.336-.336h-2.5a.372.372,0,0,0-.416.416.372.372,0,0,0,.416.416c.832,0,1.312.24,1.312.768a.984.984,0,0,1-.016.208l-2.4,8.16A4.238,4.238,0,0,0,29.28-1.2c0,.88.528,1.392,1.568,1.392C32.3.192,33.376-1.1,33.824-2.656ZM36.592.192c1.584,0,2.864-.992,3.744-2.736a.852.852,0,0,0,.1-.384c0-.176-.1-.256-.272-.256a.434.434,0,0,0-.416.272C39.168-1.68,38.4-.96,37.376-.96c-1.1,0-1.728-.672-1.728-2.128a5.687,5.687,0,0,1,.224-1.552h3.376c.9,0,1.44-1.1,1.44-2A1.512,1.512,0,0,0,39.04-8.192c-2.432,0-4.7,3.1-4.7,5.952C34.336-.656,35.136.192,36.592.192Zm1.7-7.424c.56,0,.928.352.928,1.1a2.6,2.6,0,0,1-.112.752H36.16C36.656-6.464,37.456-7.232,38.288-7.232Zm8.976,5.248c.144,1.408.768,2.176,1.872,2.176,2.368,0,4.432-3.168,4.432-6.224,0-1.392-.72-2.16-1.984-2.16-1.536,0-2.848,1.52-3.952,4.272L47.52-4,50.1-11.776a.7.7,0,0,0,.032-.16.265.265,0,0,0-.3-.3H47.248a.372.372,0,0,0-.416.416.372.372,0,0,0,.416.416c.752,0,1.216.208,1.216.768a.6.6,0,0,1-.016.176L45.632-.3c-.048.208.032.3.272.3a.556.556,0,0,0,.56-.3ZM50.928-7.04c.9,0,1.392.7,1.392,2,0,2.048-1.232,4.176-2.816,4.176-1.008,0-1.568-.816-1.76-2.16l.128-.544C48.912-5.808,49.9-7.04,50.928-7.04ZM62.1-5.648a2.5,2.5,0,0,0-2.752-2.544c-2.576,0-4.8,2.864-4.8,5.84A2.44,2.44,0,0,0,57.168.192C59.808.192,62.1-2.672,62.1-5.648Zm-6.3,2.416c0-2.288,1.408-3.824,2.928-3.824A2.081,2.081,0,0,1,60.832-4.72c0,2.208-1.392,3.776-3.024,3.776A2.03,2.03,0,0,1,55.792-3.232ZM72.144-1.968q.12-.24-.288-.24a.458.458,0,0,0-.352.256,1.8,1.8,0,0,1-1.584.976.573.573,0,0,1-.64-.656,2.66,2.66,0,0,1,.208-.928l1.76-4.928a1.427,1.427,0,0,0,.032-.176A.3.3,0,0,0,70.944-8h-.832l-.944,2.816C67.712-2.448,66.592-.96,65.616-.96c-.5,0-.736-.256-.736-.768a4.4,4.4,0,0,1,.3-1.3l1.552-4.464a1.427,1.427,0,0,0,.032-.176A.3.3,0,0,0,66.432-8h-2.56a.372.372,0,0,0-.416.416.372.372,0,0,0,.416.416c.832,0,1.248.24,1.248.736a2.387,2.387,0,0,1-.032.336L63.856-2.64a5.008,5.008,0,0,0-.368,1.632c0,.8.48,1.2,1.424,1.2,1.456,0,2.848-1.6,4.336-4.5l.1.064-.976,2.256a2.657,2.657,0,0,0-.256,1.056c0,.752.384,1.12,1.168,1.12A3.357,3.357,0,0,0,72.144-1.968Zm5.36-.688c.048-.16-.032-.24-.256-.24a.37.37,0,0,0-.368.3c-.336.976-.928,1.7-1.744,1.7a.822.822,0,0,1-.848-.928,3.374,3.374,0,0,1,.112-.768l2.624-9.136a1.427,1.427,0,0,0,.032-.176.3.3,0,0,0-.336-.336h-2.5a.372.372,0,0,0-.416.416.372.372,0,0,0,.416.416c.832,0,1.312.24,1.312.768a.984.984,0,0,1-.016.208l-2.4,8.16A4.238,4.238,0,0,0,72.96-1.2c0,.88.528,1.392,1.568,1.392C75.984.192,77.056-1.1,77.5-2.656ZM80.272.192c1.584,0,2.864-.992,3.744-2.736a.852.852,0,0,0,.1-.384c0-.176-.1-.256-.272-.256a.434.434,0,0,0-.416.272C82.848-1.68,82.08-.96,81.056-.96c-1.1,0-1.728-.672-1.728-2.128a5.687,5.687,0,0,1,.224-1.552h3.376c.9,0,1.44-1.1,1.44-2A1.512,1.512,0,0,0,82.72-8.192c-2.432,0-4.7,3.1-4.7,5.952C78.016-.656,78.816.192,80.272.192Zm1.7-7.424c.56,0,.928.352.928,1.1a2.6,2.6,0,0,1-.112.752H79.84C80.336-6.464,81.136-7.232,81.968-7.232Zm11.6-.016c0-.64-.3-.96-.928-.96-.528,0-.8.208-.8.608,0,.944.384,1.584.384,2.448,0,1.648-1.792,4.336-3.648,4.336a.451.451,0,0,1-.512-.5,2.13,2.13,0,0,1,.112-.592l2.08-5.744a.812.812,0,0,0,.032-.144c0-.144-.08-.208-.24-.208a.443.443,0,0,0-.208.048l-.672.224a3.792,3.792,0,0,0-1.984-.464c-.976,0-1.536,1.056-1.536,2.96,0,.256.144.384.448.384a.3.3,0,0,0,.336-.336c0-.384-.064-.992-.064-1.248,0-.4.176-.592.512-.592a4.008,4.008,0,0,1,1.776.48L86.976-1.9a3.524,3.524,0,0,0-.24,1.136c0,.64.352.96,1.04.96C90.448.192,93.568-3.216,93.568-7.248Zm4.656,5.776a1.67,1.67,0,0,0-.064.448,1.143,1.143,0,0,0,1.3,1.216c1.264,0,1.952-.944,2.48-2.56.064-.192-.032-.288-.272-.288-.176,0-.288.1-.352.3C100.976-1.376,100.544-.9,100-.9c-.352,0-.528-.192-.528-.56a1.759,1.759,0,0,1,.1-.512l1.328-3.6a4.036,4.036,0,0,0,.24-1.12c0-.976-.88-1.5-2.48-1.5C96.9-8.192,95.2-7.04,95.2-5.7c0,.48.272.72.8.72s.8-.24.8-.72c0-.256-.208-.624-.208-.864,0-.432.656-.672,1.616-.672,1.1,0,1.552.4,1.552,1.152a1.977,1.977,0,0,1-.16.736l-.3.816-2.72.9c-1.616.512-2.512,1.328-2.512,2.3A1.431,1.431,0,0,0,95.7.192a2.76,2.76,0,0,0,2.4-1.664Zm-2.688-.24c0-.624.528-1.152,1.472-1.472l2.064-.7-.32.9c-.816,1.344-1.68,2.128-2.368,2.128A.754.754,0,0,1,95.536-1.712Zm9.488-1.472C106.256-5.6,107.232-6.9,108.016-6.9c.464,0,.448.608,1.152.608.528,0,.784-.288.784-.88,0-.688-.368-1.024-1.088-1.024-1.264,0-2.608,1.5-4,4.256l-.1-.064,1.456-3.536a.7.7,0,0,0,.032-.16.265.265,0,0,0-.3-.3h-2.4a.372.372,0,0,0-.416.416.372.372,0,0,0,.416.416c.72,0,1.152.256,1.152.768a2.248,2.248,0,0,1-.032.288L102.8,0h1.456Zm13.792,1.216c.08-.176-.048-.24-.256-.24a.471.471,0,0,0-.368.24,1.879,1.879,0,0,1-1.6.992q-.624,0-.624-.672a3.148,3.148,0,0,1,.16-.944l2.576-9.056a.826.826,0,0,0,.032-.176.3.3,0,0,0-.336-.336h-2.592a.372.372,0,0,0-.416.416.372.372,0,0,0,.416.416q1.344,0,1.344.768a.984.984,0,0,1-.016.208L116.048-6.4c-.24-1.152-.832-1.792-1.9-1.792-2.352,0-4.416,3.248-4.416,6.224a1.984,1.984,0,0,0,2.128,2.16c1.536,0,2.784-1.52,3.872-4.272l.112.08-.752,1.984a3.215,3.215,0,0,0-.224,1.072A1.038,1.038,0,0,0,116.032.192,3.333,3.333,0,0,0,118.816-1.968ZM110.96-2.9c0-2.064,1.248-4.24,2.736-4.24,1.136,0,1.808.832,1.936,2.24l-.128.432c-1.072,2.256-2.048,3.5-3.072,3.5C111.488-.96,110.96-1.6,110.96-2.9Z" transform="translate(9082 -14714.84)" fill="#fff"></path></g></svg>