<svg data-src="/svg/tag-trois-rivieres-fr.svg" id="Layer_1" xmlns="http://www.w3.org/2000/svg" viewBox="0 0 236.02 55.15" data-id="svg-loader_142"><defs><style>[data-id="svg-loader_142"] .cls-1{fill:#fff;}[data-id="svg-loader_142"] .cls-2{fill:#0d20d9;}</style></defs><path class="cls-2" d="m0,27.57C0,42.8,12.34,55.15,27.57,55.15h180.87c15.23,0,27.57-12.35,27.57-27.57S223.67,0,208.44,0H27.57C12.34,0,0,12.35,0,27.57,0,27.57,0,12.35,0,27.57Z"></path><g><path class="cls-1" d="m42.62,35.8c-2,0-2.83-.86-2.83-2.24,0-.6.16-1.27.44-2.08l2.63-7.64h-2.11c-.44,0-.68-.23-.68-.68s.23-.68.68-.68h2.57l1.35-3.95h.86l-.34,3.95h4.39c.44,0,.68.26.68.81,0,.65-.23.96-.68.96-.94,0-2.65-.08-4.91-.26l-2.47,7.28c-.13.52-.29,1.01-.29,1.35,0,.86.49,1.4,1.66,1.4,1.53,0,2.83-1.2,3.46-2.76.13-.34.34-.49.57-.49.39,0,.55.13.47.39-.83,2.73-2.83,4.63-5.46,4.63Z"></path><path class="cls-1" d="m53.03,35.49h-2.37l3.04-9.93c.03-.18.05-.34.05-.47,0-.83-.7-1.25-1.87-1.25-.44,0-.68-.23-.68-.68s.23-.68.68-.68h3.9c.34,0,.49.16.49.49,0,.08-.03.16-.05.26l-2.37,5.75.16.1c2.26-4.47,4.45-6.92,6.5-6.92,1.17,0,1.77.55,1.77,1.66,0,.96-.42,1.43-1.27,1.43-1.14,0-1.12-.99-1.87-.99-1.27,0-2.86,2.11-4.86,6.03l-1.25,5.17Z"></path><path class="cls-1" d="m66.05,35.8c-2.63,0-4.26-1.72-4.26-4.13,0-4.84,3.61-9.49,7.8-9.49,2.78,0,4.47,1.72,4.47,4.13,0,4.84-3.72,9.49-8.01,9.49Zm1.04-1.85c2.65,0,4.91-2.55,4.91-6.14,0-2.26-1.27-3.8-3.43-3.8-2.47,0-4.76,2.5-4.76,6.21,0,2.18,1.22,3.72,3.28,3.72Z"></path><path class="cls-1" d="m79.45,34.03c1.07,0,1.95-.57,2.6-1.72.18-.29.36-.42.55-.42.44,0,.6.13.47.39-1.14,2.26-2.78,3.51-4.63,3.51-1.59,0-2.5-.83-2.5-2.29,0-.44.1-1.07.34-1.72l2.29-6.24c.03-.21.08-.39.08-.52,0-.81-.65-1.2-1.95-1.2-.44,0-.68-.23-.68-.68s.23-.68.68-.68h4.06c.36,0,.55.18.55.55,0,.03-.03.16-.05.29l-2.89,7.96c-.18.52-.26.94-.26,1.22,0,1.01.44,1.53,1.35,1.53Zm1.98-15.16c-.99,0-1.48-.57-1.48-1.74s.49-1.72,1.48-1.72,1.46.57,1.46,1.72-.49,1.74-1.46,1.74Z"></path><path class="cls-1" d="m88.36,35.8c-2.91,0-4.39-.88-4.39-2.42,0-1.27.49-1.9,1.48-1.9.83,0,1.25.44,1.25,1.35,0,1.33.6,1.98,1.79,1.98,1.64,0,2.31-.86,2.31-2.34,0-1.33-.96-2.26-2.08-3.12-1.17-.94-2.21-2-2.21-3.64,0-2.26,1.53-3.54,4.58-3.54,2.6,0,4.06.88,4.06,2.42,0,1.22-.49,1.82-1.46,1.82-.86,0-1.27-.42-1.27-1.27,0-1.27-.6-1.98-1.61-1.98-1.59,0-2.24.73-2.24,2.08,0,1.22.83,2.08,1.85,2.89,1.25.96,2.44,2.08,2.44,3.87,0,2.42-1.56,3.8-4.5,3.8Z"></path><path class="cls-1" d="m96.76,29.43v-1.01h9.44v1.01h-9.44Z"></path><path class="cls-1" d="m110.81,35.49h-2.37l3.04-9.93c.03-.18.05-.34.05-.47,0-.83-.7-1.25-1.87-1.25-.44,0-.68-.23-.68-.68s.23-.68.68-.68h3.9c.34,0,.49.16.49.49,0,.08-.03.16-.05.26l-2.37,5.75.16.1c2.26-4.47,4.45-6.92,6.5-6.92,1.17,0,1.77.55,1.77,1.66,0,.96-.42,1.43-1.27,1.43-1.14,0-1.12-.99-1.87-.99-1.27,0-2.86,2.11-4.86,6.03l-1.25,5.17Z"></path><path class="cls-1" d="m124.59,34.03c1.07,0,1.95-.57,2.6-1.72.18-.29.36-.42.55-.42.44,0,.6.13.47.39-1.14,2.26-2.78,3.51-4.63,3.51-1.59,0-2.5-.83-2.5-2.29,0-.44.1-1.07.34-1.72l2.29-6.24c.03-.21.08-.39.08-.52,0-.81-.65-1.2-1.95-1.2-.44,0-.68-.23-.68-.68s.23-.68.68-.68h4.06c.36,0,.55.18.55.55,0,.03-.03.16-.05.29l-2.89,7.96c-.18.52-.26.94-.26,1.22,0,1.01.44,1.53,1.35,1.53Zm1.98-15.16c-.99,0-1.48-.57-1.48-1.74s.49-1.72,1.48-1.72,1.46.57,1.46,1.72-.49,1.74-1.46,1.74Z"></path><path class="cls-1" d="m132.57,35.8c-1.12,0-1.69-.52-1.69-1.56,0-.49.13-1.12.39-1.85l2.73-7.54c-1.04-.52-2-.78-2.89-.78-.55,0-.83.31-.83.96,0,.42.1,1.4.1,2.03,0,.36-.18.55-.55.55-.49,0-.73-.21-.73-.62,0-3.09.91-4.81,2.5-4.81,1.27,0,2.47.26,3.22.75l1.09-.36c.1-.05.21-.08.34-.08.26,0,.39.1.39.34,0,.05-.03.13-.05.23l-3.38,9.33c-.1.34-.18.68-.18.96,0,.44.21.81.83.81,3.02,0,5.93-4.37,5.93-7.05,0-1.4-.62-2.44-.62-3.98,0-.65.44-.99,1.3-.99,1.01,0,1.51.52,1.51,1.56,0,6.55-5.07,12.09-9.41,12.09Z"></path><path class="cls-1" d="m147.2,34.03c1.07,0,1.95-.57,2.6-1.72.18-.29.36-.42.55-.42.44,0,.6.13.47.39-1.14,2.26-2.78,3.51-4.63,3.51-1.59,0-2.5-.83-2.5-2.29,0-.44.1-1.07.34-1.72l2.29-6.24c.03-.21.08-.39.08-.52,0-.81-.65-1.2-1.95-1.2-.44,0-.68-.23-.68-.68s.23-.68.68-.68h4.06c.36,0,.55.18.55.55,0,.03-.03.16-.05.29l-2.89,7.96c-.18.52-.26.94-.26,1.22,0,1.01.44,1.53,1.35,1.53Zm1.98-15.16c-.99,0-1.48-.57-1.48-1.74s.49-1.72,1.48-1.72,1.46.57,1.46,1.72-.49,1.74-1.46,1.74Z"></path><path class="cls-1" d="m152.03,31.85c0-4.63,3.69-9.67,7.64-9.67,1.48,0,2.68.88,2.68,2.52,0,1.46-.88,3.25-2.34,3.25h-5.49c-.23.83-.36,1.66-.36,2.52,0,2.37,1.01,3.46,2.81,3.46,1.66,0,2.91-1.17,3.85-3.17.13-.29.36-.44.68-.44.29,0,.44.13.44.42,0,.21-.05.42-.16.62-1.43,2.83-3.51,4.45-6.08,4.45-2.37,0-3.67-1.38-3.67-3.95Zm2.96-5.1h4.78c.13-.44.18-.83.18-1.22,0-1.22-.6-1.79-1.51-1.79-1.35,0-2.65,1.25-3.46,3.02Zm5.95-7.31l-.94.36-4.47-5.54c-.05-.08-.08-.16-.08-.21,0-.18.42-.26,1.27-.26s1.38.1,1.48.34l2.73,5.3Z"></path><path class="cls-1" d="m166.22,35.49h-2.37l3.04-9.93c.03-.18.05-.34.05-.47,0-.83-.7-1.25-1.87-1.25-.44,0-.68-.23-.68-.68s.23-.68.68-.68h3.9c.34,0,.49.16.49.49,0,.08-.03.16-.05.26l-2.37,5.75.16.1c2.26-4.47,4.45-6.92,6.5-6.92,1.17,0,1.77.55,1.77,1.66,0,.96-.42,1.43-1.27,1.43-1.14,0-1.12-.99-1.87-.99-1.27,0-2.86,2.11-4.86,6.03l-1.25,5.17Z"></path><path class="cls-1" d="m174.89,31.85c0-4.63,3.69-9.67,7.64-9.67,1.48,0,2.68.88,2.68,2.52,0,1.46-.88,3.25-2.34,3.25h-5.49c-.23.83-.36,1.66-.36,2.52,0,2.37,1.01,3.46,2.81,3.46,1.66,0,2.91-1.17,3.85-3.17.13-.29.36-.44.68-.44.29,0,.44.13.44.42,0,.21-.05.42-.16.62-1.43,2.83-3.51,4.45-6.08,4.45-2.37,0-3.67-1.38-3.67-3.95Zm2.96-5.1h4.78c.13-.44.18-.83.18-1.22,0-1.22-.6-1.79-1.51-1.79-1.35,0-2.65,1.25-3.46,3.02Z"></path><path class="cls-1" d="m190.59,35.8c-2.91,0-4.39-.88-4.39-2.42,0-1.27.49-1.9,1.48-1.9.83,0,1.25.44,1.25,1.35,0,1.33.6,1.98,1.79,1.98,1.64,0,2.31-.86,2.31-2.34,0-1.33-.96-2.26-2.08-3.12-1.17-.94-2.21-2-2.21-3.64,0-2.26,1.53-3.54,4.58-3.54,2.6,0,4.06.88,4.06,2.42,0,1.22-.49,1.82-1.46,1.82-.86,0-1.27-.42-1.27-1.27,0-1.27-.6-1.98-1.61-1.98-1.59,0-2.24.73-2.24,2.08,0,1.22.83,2.08,1.85,2.89,1.25.96,2.44,2.08,2.44,3.87,0,2.42-1.56,3.8-4.5,3.8Z"></path></g></svg>